<svg width="65" height="38" viewBox="0 0 65 38" fill="none" xmlns="http://www.w3.org/2000/svg">
<path d="M5.252 4.56H12.98V5.778H10.278V10.244C10.278 10.5427 10.2313 10.7433 10.138 10.846C10.0447 10.9487 9.83467 11 9.508 11H7.968V5.778H5.252V4.56ZM17.7538 11.098C17.0071 11.098 16.3724 11.0467 15.8498 10.944C15.3271 10.8413 14.8978 10.6687 14.5618 10.426C14.2351 10.174 13.9924 9.83333 13.8338 9.404C13.6844 8.97467 13.6098 8.43333 13.6098 7.78C13.6098 7.108 13.6891 6.562 13.8478 6.142C14.0064 5.71267 14.2538 5.37667 14.5898 5.134C14.9351 4.882 15.3691 4.70467 15.8918 4.602C16.4238 4.49933 17.0584 4.448 17.7958 4.448C18.5331 4.448 19.1631 4.49933 19.6858 4.602C20.2084 4.70467 20.6331 4.882 20.9598 5.134C21.2958 5.37667 21.5384 5.71267 21.6878 6.142C21.8464 6.57133 21.9258 7.11733 21.9258 7.78C21.9258 8.44267 21.8464 8.98867 21.6878 9.418C21.5291 9.84733 21.2818 10.188 20.9458 10.44C20.6098 10.6827 20.1758 10.8553 19.6438 10.958C19.1211 11.0513 18.4911 11.098 17.7538 11.098ZM17.7678 9.908C18.0758 9.908 18.3418 9.88 18.5658 9.824C18.7991 9.75867 18.9858 9.64667 19.1258 9.488C19.2751 9.32933 19.3824 9.11467 19.4478 8.844C19.5224 8.564 19.5598 8.20933 19.5598 7.78C19.5598 7.34133 19.5224 6.98667 19.4478 6.716C19.3824 6.436 19.2751 6.22133 19.1258 6.072C18.9858 5.91333 18.7991 5.806 18.5658 5.75C18.3418 5.68467 18.0758 5.652 17.7678 5.652C17.4504 5.652 17.1751 5.68467 16.9418 5.75C16.7178 5.806 16.5358 5.91333 16.3958 6.072C16.2558 6.22133 16.1484 6.436 16.0738 6.716C15.9991 6.98667 15.9618 7.34133 15.9618 7.78C15.9618 8.20933 15.9991 8.564 16.0738 8.844C16.1484 9.11467 16.2558 9.32933 16.3958 9.488C16.5358 9.64667 16.7178 9.75867 16.9418 9.824C17.1751 9.88 17.4504 9.908 17.7678 9.908ZM23.1193 11C23.1193 10.0947 23.1146 9.18933 23.1053 8.284C23.1053 7.37867 23.1053 6.47333 23.1053 5.568C23.1053 5.21333 23.1659 4.95667 23.2873 4.798C23.4086 4.63933 23.6559 4.56 24.0293 4.56C24.5146 4.56 25.0139 4.56 25.5273 4.56C26.0499 4.55067 26.5679 4.55067 27.0813 4.56C27.5946 4.56 28.0893 4.56 28.5653 4.56C28.9946 4.56933 29.3726 4.63933 29.6993 4.77C30.0353 4.89133 30.3013 5.10133 30.4973 5.4C30.6933 5.69867 30.7913 6.10467 30.7913 6.618C30.7913 7.178 30.6979 7.63067 30.5113 7.976C30.3339 8.312 30.0819 8.55467 29.7553 8.704C29.4286 8.844 29.0506 8.914 28.6213 8.914C28.0613 8.90467 27.4826 8.9 26.8853 8.9C26.2879 8.9 25.7139 8.9 25.1633 8.9C25.1633 8.55467 25.1633 8.30267 25.1633 8.144C25.1633 7.976 25.1866 7.86867 25.2333 7.822C25.2799 7.766 25.3639 7.738 25.4853 7.738C25.6813 7.738 25.9006 7.738 26.1433 7.738C26.3859 7.738 26.6379 7.738 26.8993 7.738C27.1606 7.738 27.4079 7.738 27.6413 7.738C27.8093 7.738 27.9539 7.70533 28.0753 7.64C28.1966 7.56533 28.2899 7.44867 28.3553 7.29C28.4299 7.13133 28.4673 6.926 28.4673 6.674C28.4673 6.37533 28.4113 6.156 28.2993 6.016C28.1966 5.86667 28.0239 5.78267 27.7813 5.764C27.5293 5.75467 27.2819 5.75 27.0393 5.75C26.8059 5.75 26.5726 5.75 26.3393 5.75C26.1059 5.75 25.8866 5.75467 25.6813 5.764C25.6253 5.764 25.5646 5.78733 25.4993 5.834C25.4339 5.88067 25.4013 5.94133 25.4013 6.016C25.4013 6.84667 25.4013 7.67733 25.4013 8.508C25.4013 9.32933 25.4013 10.16 25.4013 11H23.1193Z" fill="white"/>
<path d="M10.52 33.27C10.12 33.27 9.67 33.23 9.17 33.15C8.69 33.07 8.23 32.97 7.79 32.85C7.37 32.73 7.04 32.6 6.8 32.46C6.66 32.38 6.55 32.3 6.47 32.22C6.41 32.12 6.38 31.96 6.38 31.74L6.23 27.03C6.23 26.63 6.36 26.43 6.62 26.43C6.84 26.43 6.99 26.61 7.07 26.97L7.34 28.11C8.02 30.97 9.29 32.4 11.15 32.4C12.15 32.4 12.94 32.07 13.52 31.41C14.12 30.73 14.42 29.78 14.42 28.56C14.42 27.38 14.11 26.28 13.49 25.26C12.89 24.24 11.92 23.23 10.58 22.23C9.1 21.17 8.02 20.15 7.34 19.17C6.66 18.17 6.32 17.11 6.32 15.99C6.32 14.51 6.83 13.33 7.85 12.45C8.89 11.55 10.21 11.1 11.81 11.1C12.41 11.1 12.99 11.17 13.55 11.31C14.11 11.45 14.57 11.65 14.93 11.91C15.05 11.99 15.14 12.08 15.2 12.18C15.28 12.28 15.32 12.41 15.32 12.57L15.41 17.1C15.41 17.44 15.28 17.61 15.02 17.61C14.84 17.61 14.71 17.47 14.63 17.19L14.42 16.44C13.98 14.9 13.52 13.78 13.04 13.08C12.58 12.36 11.91 12 11.03 12C10.17 12 9.48 12.28 8.96 12.84C8.46 13.4 8.21 14.19 8.21 15.21C8.21 16.07 8.49 16.89 9.05 17.67C9.61 18.45 10.59 19.4 11.99 20.52C13.49 21.74 14.58 22.92 15.26 24.06C15.96 25.18 16.31 26.38 16.31 27.66C16.31 28.78 16.06 29.76 15.56 30.6C15.06 31.44 14.37 32.1 13.49 32.58C12.63 33.04 11.64 33.27 10.52 33.27ZM17.1268 33C16.8268 33 16.6768 32.9 16.6768 32.7C16.6768 32.5 16.8168 32.37 17.0968 32.31L17.5468 32.22C17.9468 32.14 18.2468 31.95 18.4468 31.65C18.6468 31.33 18.8168 30.89 18.9568 30.33L23.6068 11.58C23.6468 11.38 23.7068 11.25 23.7868 11.19C23.8868 11.13 23.9768 11.1 24.0568 11.1C24.1568 11.1 24.2468 11.13 24.3268 11.19C24.4268 11.25 24.4968 11.38 24.5368 11.58L29.2768 30.6C29.4168 31.16 29.5768 31.55 29.7568 31.77C29.9368 31.99 30.2168 32.14 30.5968 32.22L31.0468 32.31C31.3268 32.37 31.4668 32.5 31.4668 32.7C31.4668 32.9 31.3168 33 31.0168 33H25.8868C25.6068 33 25.4668 32.89 25.4668 32.67C25.4668 32.45 25.6368 32.33 25.9768 32.31L26.5468 32.25C26.8868 32.21 27.0968 32.1 27.1768 31.92C27.2768 31.74 27.2768 31.43 27.1768 30.99L26.0368 26.34C25.9168 25.82 25.5868 25.56 25.0468 25.56H21.8968C21.3768 25.56 21.0468 25.82 20.9068 26.34L19.8868 30.36C19.5868 31.5 19.8868 32.13 20.7868 32.25L21.2368 32.31C21.5768 32.37 21.7468 32.49 21.7468 32.67C21.7468 32.89 21.6068 33 21.3268 33H17.1268ZM21.8068 24.66H25.1068C25.4268 24.66 25.5568 24.49 25.4968 24.15L23.5768 16.11H23.4268L21.4168 24.15C21.3568 24.49 21.4868 24.66 21.8068 24.66ZM44.1348 33.27C42.3948 33.27 41.2848 32.13 40.8048 29.85L40.1148 26.52C39.8948 25.44 39.6448 24.62 39.3648 24.06C39.1048 23.5 38.7348 23.12 38.2548 22.92C37.7948 22.72 37.1548 22.62 36.3348 22.62C36.0548 22.62 35.8348 22.7 35.6748 22.86C35.5148 23 35.4348 23.18 35.4348 23.4V30.9C35.4348 31.32 35.5148 31.61 35.6748 31.77C35.8348 31.91 36.1948 32.03 36.7548 32.13L37.8648 32.31C38.0848 32.35 38.1948 32.46 38.1948 32.64C38.1948 32.88 38.0448 33 37.7448 33H31.6548C31.3548 33 31.2048 32.89 31.2048 32.67C31.2048 32.49 31.3348 32.37 31.5948 32.31L32.2848 32.19C32.7048 32.11 32.9748 32 33.0948 31.86C33.2348 31.72 33.3048 31.44 33.3048 31.02V13.38C33.3048 12.96 33.2348 12.68 33.0948 12.54C32.9748 12.4 32.7048 12.29 32.2848 12.21L31.5948 12.09C31.3348 12.03 31.2048 11.91 31.2048 11.73C31.2048 11.51 31.3548 11.4 31.6548 11.4H37.7448C38.9248 11.4 39.9748 11.63 40.8948 12.09C41.8148 12.55 42.5348 13.19 43.0548 14.01C43.5748 14.81 43.8348 15.74 43.8348 16.8C43.8348 18.06 43.4548 19.2 42.6948 20.22C41.9348 21.22 40.9748 21.93 39.8148 22.35C39.6748 22.39 39.5948 22.46 39.5748 22.56C39.5748 22.64 39.6448 22.71 39.7848 22.77C40.4248 23.07 40.9248 23.49 41.2848 24.03C41.6648 24.57 41.9548 25.29 42.1548 26.19L42.8148 29.25C43.0348 30.29 43.2948 31.03 43.5948 31.47C43.8948 31.91 44.2748 32.13 44.7348 32.13C44.8948 32.13 45.0348 32.11 45.1548 32.07C45.2948 32.01 45.4648 31.91 45.6648 31.77C45.8248 31.67 45.9748 31.65 46.1148 31.71C46.2548 31.75 46.3248 31.85 46.3248 32.01C46.3248 32.35 46.1048 32.65 45.6648 32.91C45.2248 33.15 44.7148 33.27 44.1348 33.27ZM37.4448 21.87C38.8048 21.87 39.8348 21.42 40.5348 20.52C41.2348 19.6 41.5848 18.38 41.5848 16.86C41.5848 15.38 41.1748 14.23 40.3548 13.41C39.5548 12.57 38.4448 12.15 37.0248 12.15C35.9648 12.15 35.4348 12.55 35.4348 13.35V20.22C35.4348 21.32 36.1048 21.87 37.4448 21.87ZM52.2997 33.3C52.2197 33.3 52.1297 33.27 52.0297 33.21C51.9297 33.15 51.8597 33.02 51.8197 32.82L47.0797 13.8C46.9397 13.24 46.7797 12.85 46.5997 12.63C46.4397 12.41 46.1597 12.26 45.7597 12.18L45.3097 12.09C45.0297 12.03 44.8897 11.9 44.8897 11.7C44.8897 11.5 45.0397 11.4 45.3397 11.4H50.4697C50.7497 11.4 50.8897 11.51 50.8897 11.73C50.8897 11.95 50.7197 12.07 50.3797 12.09L49.8097 12.15C49.4697 12.17 49.2497 12.28 49.1497 12.48C49.0697 12.66 49.0797 12.97 49.1797 13.41L52.6597 27.84C52.6997 27.96 52.7597 28.02 52.8397 28.02C52.9397 28.02 52.9997 27.96 53.0197 27.84L56.4697 14.04C56.7497 12.9 56.4497 12.27 55.5697 12.15L55.1197 12.09C54.7797 12.03 54.6097 11.91 54.6097 11.73C54.6097 11.51 54.7497 11.4 55.0297 11.4H59.2297C59.5297 11.4 59.6797 11.5 59.6797 11.7C59.6797 11.9 59.5397 12.03 59.2597 12.09L58.8097 12.18C58.4297 12.26 58.1297 12.46 57.9097 12.78C57.7097 13.08 57.5397 13.51 57.3997 14.07L52.7497 32.82C52.7097 33.02 52.6397 33.15 52.5397 33.21C52.4597 33.27 52.3797 33.3 52.2997 33.3Z" fill="white"/>
</svg>
